<svg class="icon" viewBox="0 0 1024 1024" xmlns="http://www.w3.org/2000/svg" width="200" height="200"><path d="M940.8 512c0-57.6 32-108.8 83.2-128-25.6-89.6-76.8-172.8-140.8-236.8-44.8 32-108.8 38.4-160 12.8-51.2-32-76.8-83.2-70.4-140.8C608 6.4 556.8 0 512 0c-51.2 0-96 6.4-140.8 19.2C377.6 70.4 352 128 300.8 160c-51.2 32-115.2 25.6-160-12.8C76.8 211.2 25.6 294.4 0 384c51.2 19.2 83.2 70.4 83.2 128 0 57.6-32 108.8-83.2 128 25.6 89.6 76.8 172.8 140.8 236.8 44.8-32 108.8-38.4 160-12.8 51.2 32 76.8 83.2 70.4 140.8 44.8 12.8 96 19.2 140.8 19.2 51.2 0 96-6.4 140.8-19.2C646.4 953.6 672 896 723.2 864c51.2-32 115.2-25.6 160 12.8 64-64 115.2-147.2 140.8-236.8-51.2-19.2-83.2-70.4-83.2-128zM512 723.2c-121.6 0-217.6-96-217.6-211.2 0-115.2 96-211.2 217.6-211.2s217.6 96 217.6 211.2c0 115.2-96 211.2-217.6 211.2zm0-83.2c70.692 0 128-57.308 128-128 0-70.692-57.308-128-128-128-70.692 0-128 57.308-128 128 0 70.692 57.308 128 128 128z"/></svg>